<mxfile host="app.diagrams.net" modified="2024-03-28T18:12:04.209Z" agent="Mozilla/5.0 (Windows NT 10.0; Win64; x64) AppleWebKit/537.36 (KHTML, like Gecko) Chrome/123.0.0.0 Safari/537.36" etag="cGxKZXJrqI0IVR7ZF7S9" version="24.2.1" type="device">
  <diagram id="C5RBs43oDa-KdzZeNtuy" name="Page-1">
    <mxGraphModel dx="590" dy="1023" grid="1" gridSize="10" guides="1" tooltips="1" connect="1" arrows="1" fold="1" page="1" pageScale="1" pageWidth="827" pageHeight="1169" math="0" shadow="0">
      <root>
        <mxCell id="WIyWlLk6GJQsqaUBKTNV-0" />
        <mxCell id="WIyWlLk6GJQsqaUBKTNV-1" parent="WIyWlLk6GJQsqaUBKTNV-0" />
        <mxCell id="BRk2w6dbmRDy-VxmWQXJ-3" style="edgeStyle=orthogonalEdgeStyle;rounded=0;orthogonalLoop=1;jettySize=auto;html=1;exitX=0.5;exitY=1;exitDx=0;exitDy=0;" edge="1" parent="WIyWlLk6GJQsqaUBKTNV-1" source="BRk2w6dbmRDy-VxmWQXJ-0" target="BRk2w6dbmRDy-VxmWQXJ-1">
          <mxGeometry relative="1" as="geometry" />
        </mxCell>
        <mxCell id="BRk2w6dbmRDy-VxmWQXJ-0" value="Start" style="ellipse;whiteSpace=wrap;html=1;aspect=fixed;fillColor=#f8cecc;strokeColor=#b85450;" vertex="1" parent="WIyWlLk6GJQsqaUBKTNV-1">
          <mxGeometry x="200" y="40" width="60" height="60" as="geometry" />
        </mxCell>
        <mxCell id="BRk2w6dbmRDy-VxmWQXJ-1" value="&lt;b&gt;Create new dialog&lt;/b&gt;&lt;div style=&quot;line-height: 120%;&quot;&gt;&lt;font color=&quot;#808080&quot;&gt;&lt;i&gt;final Dialog dialog = new Dialog(context); dialog.requestWindowFeature&lt;/i&gt;&lt;/font&gt;&lt;/div&gt;&lt;div style=&quot;line-height: 120%;&quot;&gt;&lt;font color=&quot;#808080&quot;&gt;&lt;i&gt;(Window.FEATURE_NO_TITLE); dialog.setCancelable(false); dialog.setContentView(R.layout.dialog_delete);&lt;/i&gt;&lt;/font&gt;&lt;br&gt;&lt;/div&gt;" style="rounded=0;whiteSpace=wrap;html=1;fillColor=#dae8fc;strokeColor=#6c8ebf;" vertex="1" parent="WIyWlLk6GJQsqaUBKTNV-1">
          <mxGeometry x="95" y="140" width="270" height="100" as="geometry" />
        </mxCell>
        <mxCell id="BRk2w6dbmRDy-VxmWQXJ-7" style="edgeStyle=orthogonalEdgeStyle;rounded=0;orthogonalLoop=1;jettySize=auto;html=1;exitX=0.5;exitY=1;exitDx=0;exitDy=0;entryX=0.5;entryY=0;entryDx=0;entryDy=0;" edge="1" parent="WIyWlLk6GJQsqaUBKTNV-1" source="BRk2w6dbmRDy-VxmWQXJ-4" target="BRk2w6dbmRDy-VxmWQXJ-6">
          <mxGeometry relative="1" as="geometry" />
        </mxCell>
        <mxCell id="BRk2w6dbmRDy-VxmWQXJ-4" value="&lt;b&gt;Access to 2 buttons&lt;/b&gt;&lt;div&gt;&lt;font color=&quot;#808080&quot;&gt;&lt;i&gt;Button buttonDelete = dialog.findViewById(R.id.buttonDelete); Button buttonCancel = dialog.findViewById(R.id.buttonCancel);&lt;/i&gt;&lt;/font&gt;&lt;br&gt;&lt;/div&gt;" style="rounded=0;whiteSpace=wrap;html=1;fillColor=#dae8fc;strokeColor=#6c8ebf;" vertex="1" parent="WIyWlLk6GJQsqaUBKTNV-1">
          <mxGeometry x="95" y="280" width="270" height="90" as="geometry" />
        </mxCell>
        <mxCell id="BRk2w6dbmRDy-VxmWQXJ-10" style="edgeStyle=orthogonalEdgeStyle;rounded=0;orthogonalLoop=1;jettySize=auto;html=1;exitX=1;exitY=0.5;exitDx=0;exitDy=0;entryX=0.5;entryY=0;entryDx=0;entryDy=0;" edge="1" parent="WIyWlLk6GJQsqaUBKTNV-1" source="BRk2w6dbmRDy-VxmWQXJ-6" target="BRk2w6dbmRDy-VxmWQXJ-8">
          <mxGeometry relative="1" as="geometry" />
        </mxCell>
        <mxCell id="BRk2w6dbmRDy-VxmWQXJ-11" style="edgeStyle=orthogonalEdgeStyle;rounded=0;orthogonalLoop=1;jettySize=auto;html=1;exitX=0;exitY=0.5;exitDx=0;exitDy=0;entryX=0.5;entryY=0;entryDx=0;entryDy=0;" edge="1" parent="WIyWlLk6GJQsqaUBKTNV-1" source="BRk2w6dbmRDy-VxmWQXJ-6" target="BRk2w6dbmRDy-VxmWQXJ-9">
          <mxGeometry relative="1" as="geometry" />
        </mxCell>
        <mxCell id="BRk2w6dbmRDy-VxmWQXJ-6" value="Confirm?" style="rhombus;whiteSpace=wrap;html=1;fillColor=#fff2cc;strokeColor=#d6b656;" vertex="1" parent="WIyWlLk6GJQsqaUBKTNV-1">
          <mxGeometry x="190" y="420" width="80" height="80" as="geometry" />
        </mxCell>
        <mxCell id="BRk2w6dbmRDy-VxmWQXJ-19" style="edgeStyle=orthogonalEdgeStyle;rounded=0;orthogonalLoop=1;jettySize=auto;html=1;exitX=0.5;exitY=1;exitDx=0;exitDy=0;entryX=0.5;entryY=0;entryDx=0;entryDy=0;" edge="1" parent="WIyWlLk6GJQsqaUBKTNV-1" source="BRk2w6dbmRDy-VxmWQXJ-8" target="BRk2w6dbmRDy-VxmWQXJ-17">
          <mxGeometry relative="1" as="geometry" />
        </mxCell>
        <mxCell id="BRk2w6dbmRDy-VxmWQXJ-8" value="Click button Delete &lt;font color=&quot;#808080&quot;&gt;&lt;i&gt;buttonDelete .setOnClickListener&lt;/i&gt;&lt;/font&gt;" style="rounded=0;whiteSpace=wrap;html=1;fillColor=#dae8fc;strokeColor=#6c8ebf;" vertex="1" parent="WIyWlLk6GJQsqaUBKTNV-1">
          <mxGeometry x="280" y="520" width="120" height="60" as="geometry" />
        </mxCell>
        <mxCell id="BRk2w6dbmRDy-VxmWQXJ-18" style="edgeStyle=orthogonalEdgeStyle;rounded=0;orthogonalLoop=1;jettySize=auto;html=1;exitX=0.5;exitY=1;exitDx=0;exitDy=0;entryX=0.5;entryY=0;entryDx=0;entryDy=0;" edge="1" parent="WIyWlLk6GJQsqaUBKTNV-1" source="BRk2w6dbmRDy-VxmWQXJ-9" target="BRk2w6dbmRDy-VxmWQXJ-14">
          <mxGeometry relative="1" as="geometry" />
        </mxCell>
        <mxCell id="BRk2w6dbmRDy-VxmWQXJ-9" value="Click button Cancel&lt;div&gt;&lt;font color=&quot;#808080&quot;&gt;&lt;i style=&quot;&quot;&gt;buttonCancel&lt;/i&gt;&lt;/font&gt;&lt;/div&gt;&lt;div&gt;&lt;font color=&quot;#808080&quot;&gt;&lt;i style=&quot;&quot;&gt;.setOnClickListener&lt;/i&gt;&lt;/font&gt;&lt;br&gt;&lt;/div&gt;" style="rounded=0;whiteSpace=wrap;html=1;fillColor=#dae8fc;strokeColor=#6c8ebf;" vertex="1" parent="WIyWlLk6GJQsqaUBKTNV-1">
          <mxGeometry x="60" y="520" width="120" height="60" as="geometry" />
        </mxCell>
        <mxCell id="BRk2w6dbmRDy-VxmWQXJ-12" value="Yes" style="text;html=1;align=center;verticalAlign=middle;whiteSpace=wrap;rounded=0;" vertex="1" parent="WIyWlLk6GJQsqaUBKTNV-1">
          <mxGeometry x="270" y="430" width="60" height="30" as="geometry" />
        </mxCell>
        <mxCell id="BRk2w6dbmRDy-VxmWQXJ-13" value="No" style="text;html=1;align=center;verticalAlign=middle;whiteSpace=wrap;rounded=0;" vertex="1" parent="WIyWlLk6GJQsqaUBKTNV-1">
          <mxGeometry x="130" y="430" width="60" height="30" as="geometry" />
        </mxCell>
        <mxCell id="BRk2w6dbmRDy-VxmWQXJ-27" style="edgeStyle=orthogonalEdgeStyle;rounded=0;orthogonalLoop=1;jettySize=auto;html=1;exitX=0.5;exitY=1;exitDx=0;exitDy=0;entryX=0;entryY=0.5;entryDx=0;entryDy=0;" edge="1" parent="WIyWlLk6GJQsqaUBKTNV-1" source="BRk2w6dbmRDy-VxmWQXJ-14" target="BRk2w6dbmRDy-VxmWQXJ-23">
          <mxGeometry relative="1" as="geometry" />
        </mxCell>
        <mxCell id="BRk2w6dbmRDy-VxmWQXJ-14" value="&lt;div&gt;&lt;font color=&quot;#808080&quot;&gt;&lt;i&gt;dialog.dismiss();&lt;/i&gt;&lt;/font&gt;&lt;br&gt;&lt;/div&gt;" style="rounded=0;whiteSpace=wrap;html=1;fillColor=#dae8fc;strokeColor=#6c8ebf;" vertex="1" parent="WIyWlLk6GJQsqaUBKTNV-1">
          <mxGeometry x="60" y="610" width="120" height="60" as="geometry" />
        </mxCell>
        <mxCell id="BRk2w6dbmRDy-VxmWQXJ-26" style="edgeStyle=orthogonalEdgeStyle;rounded=0;orthogonalLoop=1;jettySize=auto;html=1;exitX=0.5;exitY=1;exitDx=0;exitDy=0;entryX=1;entryY=0.5;entryDx=0;entryDy=0;" edge="1" parent="WIyWlLk6GJQsqaUBKTNV-1" source="BRk2w6dbmRDy-VxmWQXJ-15" target="BRk2w6dbmRDy-VxmWQXJ-23">
          <mxGeometry relative="1" as="geometry" />
        </mxCell>
        <mxCell id="BRk2w6dbmRDy-VxmWQXJ-15" value="&lt;div&gt;&lt;font color=&quot;#808080&quot;&gt;&lt;i&gt;dialog.dismiss();&lt;/i&gt;&lt;/font&gt;&lt;br&gt;&lt;/div&gt;" style="rounded=0;whiteSpace=wrap;html=1;fillColor=#dae8fc;strokeColor=#6c8ebf;" vertex="1" parent="WIyWlLk6GJQsqaUBKTNV-1">
          <mxGeometry x="280" y="830" width="120" height="60" as="geometry" />
        </mxCell>
        <mxCell id="BRk2w6dbmRDy-VxmWQXJ-21" style="edgeStyle=orthogonalEdgeStyle;rounded=0;orthogonalLoop=1;jettySize=auto;html=1;exitX=0.5;exitY=1;exitDx=0;exitDy=0;entryX=0.5;entryY=0;entryDx=0;entryDy=0;" edge="1" parent="WIyWlLk6GJQsqaUBKTNV-1" source="BRk2w6dbmRDy-VxmWQXJ-16" target="BRk2w6dbmRDy-VxmWQXJ-15">
          <mxGeometry relative="1" as="geometry" />
        </mxCell>
        <mxCell id="BRk2w6dbmRDy-VxmWQXJ-16" value="&lt;div&gt;push notify&lt;/div&gt;&lt;div&gt;&lt;i&gt;&lt;font color=&quot;#808080&quot;&gt;Toast&lt;/font&gt;&lt;/i&gt;&lt;/div&gt;&lt;div&gt;&lt;i&gt;&lt;font color=&quot;#808080&quot;&gt;.makeText(context, &quot;Grade Deleted successfully!&quot;, Toast&lt;/font&gt;&lt;/i&gt;&lt;/div&gt;&lt;div&gt;&lt;i&gt;&lt;font color=&quot;#808080&quot;&gt;.LENGTH_SHORT)&lt;/font&gt;&lt;/i&gt;&lt;/div&gt;&lt;div&gt;&lt;i&gt;&lt;font color=&quot;#808080&quot;&gt;.show();&lt;/font&gt;&lt;/i&gt;&lt;br&gt;&lt;/div&gt;" style="rounded=0;whiteSpace=wrap;html=1;fillColor=#dae8fc;strokeColor=#6c8ebf;" vertex="1" parent="WIyWlLk6GJQsqaUBKTNV-1">
          <mxGeometry x="280" y="700" width="120" height="100" as="geometry" />
        </mxCell>
        <mxCell id="BRk2w6dbmRDy-VxmWQXJ-20" style="edgeStyle=orthogonalEdgeStyle;rounded=0;orthogonalLoop=1;jettySize=auto;html=1;exitX=0.5;exitY=1;exitDx=0;exitDy=0;" edge="1" parent="WIyWlLk6GJQsqaUBKTNV-1" source="BRk2w6dbmRDy-VxmWQXJ-17" target="BRk2w6dbmRDy-VxmWQXJ-16">
          <mxGeometry relative="1" as="geometry" />
        </mxCell>
        <mxCell id="BRk2w6dbmRDy-VxmWQXJ-17" value="&lt;div&gt;get ID and remove:&lt;/div&gt;&lt;div&gt;&lt;font color=&quot;#808080&quot;&gt;&lt;i&gt;databaseReference&lt;/i&gt;&lt;/font&gt;&lt;/div&gt;&lt;div&gt;&lt;font color=&quot;#808080&quot;&gt;&lt;i&gt;.child(&quot;grades&quot;)&lt;/i&gt;&lt;/font&gt;&lt;/div&gt;&lt;div&gt;&lt;font color=&quot;#808080&quot;&gt;&lt;i&gt;.child(id)&lt;/i&gt;&lt;/font&gt;&lt;/div&gt;&lt;div&gt;&lt;font color=&quot;#808080&quot;&gt;&lt;i&gt;.removeValue();&lt;/i&gt;&lt;/font&gt;&lt;br&gt;&lt;/div&gt;" style="rounded=0;whiteSpace=wrap;html=1;fillColor=#dae8fc;strokeColor=#6c8ebf;" vertex="1" parent="WIyWlLk6GJQsqaUBKTNV-1">
          <mxGeometry x="280" y="600" width="120" height="70" as="geometry" />
        </mxCell>
        <mxCell id="BRk2w6dbmRDy-VxmWQXJ-23" value="End" style="ellipse;whiteSpace=wrap;html=1;aspect=fixed;fillColor=#f8cecc;strokeColor=#b85450;" vertex="1" parent="WIyWlLk6GJQsqaUBKTNV-1">
          <mxGeometry x="220" y="900" width="60" height="60" as="geometry" />
        </mxCell>
      </root>
    </mxGraphModel>
  </diagram>
</mxfile>
